<?xml version="1.0" encoding="UTF-8"?>
<svg width="65px" height="65px" viewBox="0 0 65 65" version="1.1" xmlns="http://www.w3.org/2000/svg" xmlns:xlink="http://www.w3.org/1999/xlink">
    <!-- Generator: Sketch 62 (91390) - https://sketch.com -->
    <title>content2_icon3_default</title>
    <desc>Created with Sketch.</desc>
    <defs>
        <linearGradient x1="100%" y1="26.9155319%" x2="8.66617667%" y2="78.6823919%" id="linearGradient-1">
            <stop stop-color="#B8B9BC" offset="0%"></stop>
            <stop stop-color="#FEFEFE" offset="100%"></stop>
        </linearGradient>
        <path d="M0.7273539,32.4434313 L1.3508001,33.1707852 C2.078154,34.0020468 3.3250464,34.1059545 4.156308,33.3786006 C4.156308,33.3786006 4.2602157,33.3786006 4.2602157,33.2746929 L15.3783396,22.2604767 C16.1056935,21.5331228 17.2486782,21.5331228 18.0799398,22.156569 L20.4698169,24.1308153 C21.3010785,24.7542615 22.4440632,24.7542615 23.1714171,24.0269076 L38.8614798,8.5446603 L40.7318184,10.1032758 C41.56308,10.8306297 42.8099724,10.6228143 43.5373263,9.7915527 C43.7451417,9.4798296 43.9529571,9.0641988 43.9529571,8.7524757 L44.7842187,0.1281366 L35.4325257,0.4398597 C34.289541,0.4398597 33.4582794,1.375029 33.4582794,2.5180137 C33.4582794,3.0375522 33.6660948,3.453183 33.9778179,3.7649061 L35.8481565,5.7391524 L24.2104941,17.5846302 C23.4831402,18.3119841 22.3401555,18.4158918 21.6128016,17.7924456 L18.9112014,15.7142916 C18.1838475,15.0908454 17.0408628,15.1947531 16.3135089,15.8181993 L0.9351693,29.6379234 C0.1039077,30.3652773 5.17086374e-14,31.6121697 0.7273539,32.4434313 L0.7273539,32.4434313 Z" id="path-2"></path>
        <filter x="-5.6%" y="-7.4%" width="111.2%" height="129.6%" filterUnits="objectBoundingBox" id="filter-3">
            <feOffset dx="0" dy="5" in="SourceAlpha" result="shadowOffsetOuter1"></feOffset>
            <feColorMatrix values="0 0 0 0 0   0 0 0 0 0   0 0 0 0 0  0 0 0 1 0" type="matrix" in="shadowOffsetOuter1"></feColorMatrix>
        </filter>
    </defs>
    <g id="定稿2" stroke="none" stroke-width="1" fill="none" fill-rule="evenodd">
        <g id="web2.1_1440_hover" transform="translate(-761.000000, -1173.000000)">
            <g id="content2" transform="translate(0.000000, 651.000000)">
                <g id="3" transform="translate(728.000000, 489.000000)">
                    <g id="content2_icon3_default" transform="translate(33.000000, 33.000000)">
                        <circle id="椭圆形" fill="#999999" cx="32.25" cy="32.25" r="32.25"></circle>
                        <g id="高可持续" transform="translate(9.750000, 11.625000)" fill-rule="nonzero">
                            <path d="M39.2771106,14.6752146 C38.5497567,13.9478607 37.3028643,14.0517684 36.6794181,14.7791223 L33.9778179,17.6885379 C33.6660948,18.1041687 33.4582794,18.5197995 33.4582794,19.039338 L33.4582794,40.6521396 L39.9005568,40.6521396 L39.9005568,16.0260147 C39.7966491,15.5064762 39.5888337,14.9869377 39.2771106,14.6752146 Z M27.6394482,23.8190922 L24.937848,26.6246001 C24.6261249,27.0402309 24.4183095,27.4558617 24.4183095,27.9754002 L24.4183095,40.5482319 L30.8605869,40.5482319 L30.8605869,24.9620769 C30.8605869,24.4425384 30.6527715,23.9229999 30.2371407,23.6112768 C29.6136945,22.9878306 28.3668021,23.0917383 27.6394482,23.8190922 Z M18.703386,26.5206924 C17.8721244,25.7933385 16.7291397,25.8972462 16.0017858,26.7285078 C15.6900627,27.0402309 15.4822473,27.5597694 15.4822473,27.9754002 L15.4822473,40.6521396 L21.9245247,40.6521396 L21.9245247,30.2613696 C21.9245247,29.7418311 21.7167093,29.1183849 21.3010785,28.8066618 L18.703386,26.5206924 Z M10.0790469,32.1317082 L7.5852621,33.4825083 C6.9618159,33.7942314 6.5461851,34.5215853 6.5461851,35.2489392 L6.5461851,40.7560473 L12.9884625,40.7560473 L12.9884625,34.0020468 C12.9884625,33.6903237 12.8845548,33.3786006 12.7806471,33.0668775 C12.2611086,31.9238928 11.1181239,31.6121697 10.0790469,32.1317082 L10.0790469,32.1317082 Z" id="形状" fill="#666666"></path>
                            <g id="路径">
                                <use fill="black" fill-opacity="1" filter="url(#filter-3)" xlink:href="#path-2"></use>
                                <use fill="url(#linearGradient-1)" xlink:href="#path-2"></use>
                            </g>
                        </g>
                    </g>
                </g>
            </g>
        </g>
    </g>
</svg>