<?xml version="1.0" encoding="UTF-8"?>
<svg width="65px" height="65px" viewBox="0 0 65 65" version="1.1" xmlns="http://www.w3.org/2000/svg" xmlns:xlink="http://www.w3.org/1999/xlink">
    <!-- Generator: Sketch 61 (89581) - https://sketch.com -->
    <title>content2_icon2_default</title>
    <desc>Created with Sketch.</desc>
    <defs>
        <linearGradient x1="95.759363%" y1="9.75846748%" x2="12.1718115%" y2="100%" id="linearGradient-1">
            <stop stop-color="#B8B9BC" offset="0%"></stop>
            <stop stop-color="#FEFEFE" offset="100%"></stop>
        </linearGradient>
        <path d="M51.3989382,17.270525 L51.3989382,17.270525 C50.8041619,16.8091403 50.0713516,16.5614777 49.3186219,16.567449 L49.1131538,16.567449 C49.0730933,16.567449 48.5812172,16.5962976 47.8160347,16.5962976 L47.8160341,16.5962976 C45.7699015,16.6042323 43.7278569,16.4128315 41.7188307,16.0248062 C38.6849336,15.3847185 35.1875682,12.4478865 34.1646373,11.8707242 L34.1646377,11.8707244 C33.1064648,11.2869458 31.8227621,11.2869452 30.7645893,11.870724 C30.6387385,11.9447354 26.9708637,15.2988022 23.3877711,16.030601 L23.3877739,16.0306004 C21.3634794,16.4185766 19.3064057,16.609881 17.2452881,16.6018424 C16.4796647,16.6018424 15.9880406,16.6018424 15.942374,16.5734977 L15.736969,16.5734977 L15.7369691,16.5734977 C14.9948403,16.5731555 14.2734221,16.8182188 13.6850604,17.2705268 L13.6850603,17.2705269 C13.0870066,17.7193712 12.7305348,18.4198754 12.7197008,19.1675472 L12.7197008,25.6531431 C12.7197008,49.6523991 31.1764224,52.7434896 31.9589897,52.8634824 C32.1386325,52.8885518 32.3202909,52.9019053 32.5020123,52.9038061 L32.5020124,52.9038061 C32.6837659,52.9049358 32.8653204,52.8914756 33.044909,52.8634824 C33.1419741,52.8634824 33.5076215,52.7892191 34.0733829,52.6522195 C31.3691038,48.2847959 31.4296356,42.7488124 34.2274524,38.4409759 L34.1927458,38.4409759 L33.7649289,38.218375 L33.764929,38.2183751 C33.2290682,37.932973 32.5863098,37.932973 32.050449,38.2183749 L29.1935492,39.7385988 L29.1935492,39.7385988 C28.5800798,40.0635998 27.8353124,40.0122265 27.2722784,39.6060713 L27.2722785,39.6060714 C26.7095456,39.199581 26.4264457,38.5088205 26.5420545,37.8243198 L27.0793452,34.6244484 L27.0793452,34.624448 C27.1780977,34.0325262 26.9792448,33.4299179 26.5475975,33.0130169 L24.2162096,30.7557662 L24.2162097,30.7557663 C23.7167429,30.2733977 23.5348835,29.5490669 23.7472614,28.8879726 L23.7472613,28.8879729 C23.9595339,28.2266204 24.5291735,27.7433485 25.2162757,27.6416853 L28.4279889,27.167509 L28.427989,27.167509 C29.0215125,27.0800862 29.5339826,26.70613 29.7983007,26.1675688 L31.2272545,23.2533496 L31.2272545,23.2533495 C31.5346793,22.6317244 32.1679982,22.2381851 32.8614874,22.2378512 L32.8614874,22.2378512 C33.555027,22.2376741 34.188482,22.6313886 34.4953424,23.2533495 L35.9700257,26.1503099 L35.9700256,26.1503097 C36.2368367,26.6886089 36.7519505,27.0606993 37.3468251,27.1448329 L40.5586643,27.6018764 L40.5586645,27.6018764 C41.2333642,27.7112481 41.7901561,28.188931 42.0008458,28.8391567 L42.0008459,28.8391568 C42.2116257,29.4894612 42.0409223,30.2030373 41.5586676,30.6875501 L39.2437196,32.9732085 L39.2437196,32.9732085 C38.9226622,33.2889433 38.7293768,33.7120304 38.7008859,34.1614208 C42.6552318,31.8790378 47.5043903,31.7880826 51.5407471,33.9215612 L51.5407484,33.9215548 C52.1253887,31.2028262 52.4108885,28.4283026 52.392162,25.6474675 L52.392162,19.1616196 L52.3921621,19.161623 C52.3696677,18.4120238 52.00334,17.7145159 51.3989617,17.2705236 L51.3989382,17.270525 Z" id="path-2"></path>
        <filter x="-3.8%" y="-3.6%" width="112.6%" height="114.5%" filterUnits="objectBoundingBox" id="filter-3">
            <feOffset dx="2" dy="3" in="SourceAlpha" result="shadowOffsetOuter1"></feOffset>
            <feColorMatrix values="0 0 0 0 0   0 0 0 0 0   0 0 0 0 0  0 0 0 1 0" type="matrix" in="shadowOffsetOuter1"></feColorMatrix>
        </filter>
        <path d="M38.6958878,34.1672141 L38.6958878,34.1672141 C38.6793849,34.3095111 38.6793849,34.4532379 38.6958878,34.5955349 L39.2672552,37.7900523 L39.2672552,37.7900523 C39.387328,38.4738728 39.1089421,39.1665935 38.549062,39.5771579 L38.549062,39.5771578 C37.9882446,39.9871786 37.2432001,40.043009 36.6275393,39.7211492 L34.1756546,38.4409109 C31.3776489,42.7488105 31.3180619,48.284668 34.0214591,52.6520915 C37.4904168,51.8290857 48.404094,48.0696887 51.535749,33.9271654 C47.4994553,31.7936869 42.6496669,31.8841381 38.6958879,34.167214 L38.6958878,34.1672141 Z" id="path-4"></path>
        <filter x="-7.7%" y="-7.4%" width="125.6%" height="129.6%" filterUnits="objectBoundingBox" id="filter-5">
            <feOffset dx="2" dy="3" in="SourceAlpha" result="shadowOffsetOuter1"></feOffset>
            <feColorMatrix values="0 0 0 0 0   0 0 0 0 0   0 0 0 0 0  0 0 0 1 0" type="matrix" in="shadowOffsetOuter1"></feColorMatrix>
        </filter>
    </defs>
    <g id="定稿2" stroke="none" stroke-width="1" fill="none" fill-rule="evenodd">
        <g id="web2.1_1440" transform="translate(-761.000000, -1011.000000)" fill-rule="nonzero">
            <g id="content2" transform="translate(0.000000, 651.000000)">
                <g id="2" transform="translate(728.000000, 327.000000)">
                    <g id="content2_icon2_default" transform="translate(33.000000, 33.000000)">
                        <path d="M0,32.2500375 L0,32.2500424 C0,50.0612594 14.4388205,64.5000799 32.2500375,64.5000799 C50.0612545,64.5000799 64.5000751,50.0612594 64.5000751,32.2500424 L64.5000751,32.2500424 C64.5000751,14.4388254 50.0612545,4.86961717e-06 32.2500375,4.86961717e-06 C14.4388205,4.86961717e-06 0,14.4388254 0,32.2500424 L0,32.2500375 Z" id="路径" fill="#363739"></path>
                        <g id="路径">
                            <use fill="black" fill-opacity="1" filter="url(#filter-3)" xlink:href="#path-2"></use>
                            <use fill="#E0E1E2" xlink:href="#path-2"></use>
                            <use fill="url(#linearGradient-1)" xlink:href="#path-2"></use>
                        </g>
                        <g id="路径">
                            <use fill="black" fill-opacity="1" filter="url(#filter-5)" xlink:href="#path-4"></use>
                            <use fill="#565759" xlink:href="#path-4"></use>
                        </g>
                    </g>
                </g>
            </g>
        </g>
    </g>
</svg>