<?xml version="1.0" encoding="UTF-8"?>
<svg width="129px" height="48px" viewBox="0 0 129 48" version="1.1" xmlns="http://www.w3.org/2000/svg" xmlns:xlink="http://www.w3.org/1999/xlink">
    <!-- Generator: Sketch 61 (89581) - https://sketch.com -->
    <title>one block+</title>
    <desc>Created with Sketch.</desc>
    <g id="定稿2" stroke="none" stroke-width="1" fill="none" fill-rule="evenodd">
        <g id="web2.1_1440" transform="translate(-1036.000000, -4102.000000)">
            <g id="content6" transform="translate(227.000000, 3967.000000)">
                <g id="one-block+" transform="translate(810.750000, 137.250000)">
                    <path d="M54.6257499,17.4187016 C55.2195281,17.4187016 55.7018822,17.344557 56.0730195,17.1960607 C56.4441567,17.0477714 56.7409423,16.7878511 56.9637903,16.4167138 C57.1862241,16.0457837 57.3386555,15.5551452 57.4212915,14.9447984 C57.5037205,14.3346587 57.545142,13.5677384 57.545142,12.6438303 C57.545142,11.7037678 57.5037205,10.9246281 57.4212915,10.3059969 C57.3386555,9.68757292 57.1862241,9.19258517 56.9637903,8.82144792 C56.7409423,8.45051777 56.4441567,8.18686949 56.0730195,8.02988174 C55.7018822,7.87330821 55.2195281,7.79481434 54.6257499,7.79481434 C54.0319717,7.79481434 53.5496175,7.87330821 53.1784803,8.02988174 C52.807343,8.18686949 52.5142854,8.45051777 52.3001359,8.82144792 C52.0855722,9.19258517 51.937283,9.68757292 51.854854,10.3059969 C51.7720109,10.9246281 51.7310036,11.7037678 51.7310036,12.6438303 C51.7310036,13.5677384 51.7720109,14.3346587 51.854854,14.9447984 C51.937283,15.5551452 52.0855722,16.0457837 52.3001359,16.4167138 C52.5142854,16.7878511 52.807343,17.0477714 53.1784803,17.1960607 C53.5496175,17.344557 54.0319717,17.4187016 54.6257499,17.4187016 M54.6257499,21.4761513 C53.3555575,21.4761513 52.2174999,21.3483658 51.2115771,21.0925876 C50.2054472,20.8372237 49.3560979,20.3795153 48.6633222,19.7194626 C47.9705464,19.0602384 47.4426286,18.1570411 47.0799827,17.010492 C46.7169227,15.8643572 46.5357033,14.4090104 46.5357033,12.6438303 C46.5357033,10.8792714 46.7169227,9.42765257 47.0799827,8.28980208 C47.4426286,7.15174449 47.9705464,6.24854718 48.6633222,5.58062439 C49.3560979,4.91270159 50.2054472,4.45105821 51.2115771,4.19507292 C52.2174999,3.93970895 53.3555575,3.8117163 54.6257499,3.8117163 C55.9120967,3.8117163 57.0540893,3.93970895 58.052142,4.19507292 C59.0499876,4.45105821 59.8954018,4.91270159 60.5881776,5.58062439 C61.2807462,6.24854718 61.808457,7.15174449 62.171517,8.28980208 C62.5341629,9.42765257 62.7157964,10.8792714 62.7157964,12.6438303 C62.7157964,14.4090104 62.5341629,15.8643572 62.171517,17.010492 C61.808457,18.1570411 61.2807462,19.0602384 60.5881776,19.7194626 C59.8954018,20.3795153 59.0499876,20.8372237 58.052142,21.0925876 C57.0540893,21.3483658 55.9120967,21.4761513 54.6257499,21.4761513" id="Fill-1" fill="#FFFFFF"></path>
                    <path d="M74.1951214,7.6217136 C75.7618923,7.6217136 76.8831741,7.98021728 77.5597955,8.69784596 C78.2357955,9.41526752 78.5742097,10.5823202 78.5742097,12.1985898 L78.5742097,21.2286989 L73.873483,21.2286989 L73.873483,13.2622957 C73.873483,12.8503582 73.8444879,12.5162933 73.7869119,12.260308 C73.7289217,12.004944 73.6259891,11.8112982 73.4776999,11.6791634 C73.3292036,11.5472357 73.1312085,11.4565224 72.8839217,11.4068165 C72.6364278,11.3573178 72.3311509,11.3326719 71.968505,11.3326719 C71.3747268,11.3326719 70.9331729,11.4316695 70.6448788,11.6296646 C70.3561705,11.8276597 70.1625246,12.0915151 70.0635271,12.4212308 L70.0635271,21.2286989 L65.3628004,21.2286989 L65.3628004,7.86900037 L70.0635271,7.86900037 L70.0635271,9.229906 C70.3932428,8.76826262 70.8923727,8.384906 71.5602955,8.07942194 C72.2282183,7.77435208 73.1065626,7.6217136 74.1951214,7.6217136" id="Fill-3" fill="#FFFFFF"></path>
                    <path d="M89.7069811,12.76766 C89.7069811,12.2565179 89.5833377,11.8441662 89.3358439,11.5306049 C89.0885571,11.217665 88.5937765,11.0606772 87.851502,11.0606772 C87.0597287,11.0606772 86.478377,11.192812 86.1072397,11.4564603 C85.7363096,11.7203157 85.525888,12.2645951 85.4763892,13.0892985 L89.7069811,12.76766 Z M93.8634284,13.6830767 C93.8634284,14.2273561 93.8468598,14.6892066 93.8139297,15.0684211 C93.7805853,15.4480498 93.7476551,15.6870522 93.7149321,15.7858426 L85.5012422,16.2808304 C85.6329627,16.8582471 85.9589505,17.2745338 86.478377,17.5301049 C86.9980105,17.7858831 87.686437,17.9136686 88.5442777,17.9136686 C88.9895596,17.9136686 89.4472679,17.8848806 89.9174027,17.8270975 C90.3873304,17.7693145 90.8328194,17.6951699 91.2532483,17.6044566 C91.6738843,17.5139505 92.0530988,17.4106037 92.3913059,17.2950375 C92.7290988,17.1798855 92.9973034,17.0643194 93.1952985,16.9485461 L93.1952985,20.4122176 C92.7829468,20.6930559 92.0777446,20.9403426 91.0801061,21.1544922 C90.0820534,21.3686417 88.9234922,21.4761306 87.6040081,21.4761306 C86.5483794,21.4761306 85.6039676,21.3729909 84.7713941,21.1669186 C83.9381993,20.9608463 83.229062,20.5979934 82.6437752,20.0783598 C82.0580743,19.5587262 81.6084431,18.8497961 81.2952961,17.9505338 C80.9819419,17.0521 80.8253684,15.9181846 80.8253684,14.5489946 C80.8253684,13.1800118 80.9819419,12.0463034 81.2952961,11.1472483 C81.6084431,10.2484002 82.0661515,9.53905588 82.6684211,9.0194223 C83.2702765,8.49999583 84.0044738,8.13735 84.8701846,7.93086348 C85.7363096,7.72479118 86.7215216,7.62165147 87.826649,7.62165147 C89.0142054,7.62165147 89.9954824,7.74529485 90.7708941,7.99278873 C91.5458917,8.2402826 92.1643157,8.61556201 92.6263733,9.11841985 C93.0880167,9.62189902 93.409448,10.2525424 93.5910816,11.0111784 C93.7725081,11.7700216 93.8634284,12.6603782 93.8634284,13.6830767 L93.8634284,13.6830767 Z" id="Fill-5" fill="#FFFFFF"></path>
                    <path d="M53.1907618,38.78579 C53.6855424,38.78579 54.1018292,38.7652863 54.4402434,38.7240718 C54.7780363,38.6830645 55.0462409,38.6045706 55.244236,38.4890044 C55.4422311,38.3738525 55.5820289,38.2168647 55.6648721,38.0188696 C55.7470939,37.8210816 55.7885154,37.5735877 55.7885154,37.2768022 C55.7885154,36.9798096 55.7470939,36.7285877 55.6648721,36.5221012 C55.5820289,36.3160289 55.4422311,36.150964 55.244236,36.0273206 C55.0462409,35.9036772 54.7823855,35.8131711 54.4524627,35.7551809 C54.12254,35.6976049 53.7019039,35.6686098 53.1907618,35.6686098 L51.904415,35.6686098 L51.904415,38.78579 L53.1907618,38.78579 Z M52.8196245,32.254437 C53.7431184,32.254437 54.406899,32.1678659 54.8111735,31.9947238 C55.2152409,31.8215816 55.4173782,31.413165 55.4173782,30.7700951 C55.4173782,30.1601625 55.2152409,29.7722495 54.8111735,29.6073917 C54.406899,29.4427409 53.7431184,29.3598978 52.8196245,29.3598978 L51.904415,29.3598978 L51.904415,32.254437 L52.8196245,32.254437 Z M46.9810473,25.5004431 L53.3887569,25.5004431 C54.740964,25.5004431 55.86266,25.5994407 56.7534309,25.7972287 C57.6439946,25.9952238 58.3529248,26.2882814 58.8810498,26.675573 C59.4085534,27.0632789 59.7796907,27.5499824 59.9942544,28.1352691 C60.2084039,28.720763 60.3158929,29.4011123 60.3158929,30.1763169 C60.3158929,31.0668806 60.1342593,31.7967287 59.7716135,32.365861 C59.4085534,32.9347863 58.7571993,33.3516944 57.8171368,33.6151355 L57.8171368,33.7141331 C58.7079076,33.9947642 59.421187,34.4402532 59.9571821,35.0501858 C60.4929701,35.6605326 60.7611748,36.5345277 60.7611748,37.6725853 C60.7611748,38.4479971 60.658035,39.1445007 60.4519627,39.7631319 C60.2454762,40.3815559 59.8830375,40.9053316 59.3634039,41.334252 C58.8437703,41.7631723 58.1427103,42.092888 57.2604309,42.3236061 C56.3779444,42.5547385 55.2688819,42.6700975 53.9330363,42.6700975 L46.9810473,42.6700975 L46.9810473,25.5004431 Z" id="Fill-7" fill="#FFFFFF"></path>
                    <path d="M67.886223,42.8185317 C66.962315,42.8185317 66.203886,42.7400379 65.6101078,42.5834643 C65.0163297,42.4268908 64.5501299,42.1839533 64.212337,41.8536163 C63.8739228,41.5239006 63.6390625,41.1115489 63.5071348,40.6165612 C63.375,40.1217805 63.3093468,39.5364937 63.3093468,38.8600795 L63.3093468,23.8675428 L68.0098664,23.8675428 L68.0098664,37.7468749 C68.0098664,38.3077229 68.0842181,38.6869374 68.2325074,38.8849325 C68.3810037,39.0827205 68.644652,39.181718 69.0242806,39.181718 L69.2469216,39.181718 C69.3125748,39.181718 69.4115723,39.1653565 69.5437071,39.1322192 L69.5437071,42.6700354 C68.9994277,42.769033 68.446864,42.8185317 67.886223,42.8185317" id="Fill-9" fill="#FFFFFF"></path>
                    <path d="M93.2072694,42.9174257 C92.1189176,42.9174257 91.1455108,42.814286 90.2880843,42.6082137 C89.4302436,42.4021414 88.7047449,42.0392885 88.1109667,41.5196549 C87.5171885,41.0000213 87.0632081,40.2910912 86.7502681,39.392036 C86.4367069,38.4933951 86.2801333,37.3594797 86.2801333,35.9902897 C86.2801333,34.6213069 86.4367069,33.4875985 86.7502681,32.5885434 C87.0632081,31.6896953 87.5171885,30.980351 88.1109667,30.4607174 C88.7047449,29.9412909 89.4302436,29.5786451 90.2880843,29.3723657 C91.1455108,29.1662934 92.1189176,29.0629466 93.2072694,29.0629466 C93.8010475,29.0629466 94.4072522,29.0919417 95.0256762,29.1495176 C95.6443074,29.207715 96.1761603,29.3023632 96.6214422,29.4340838 L96.6214422,33.2440397 C96.1761603,33.079389 95.74724,32.9681721 95.3348882,32.9101819 C94.9225365,32.8523988 94.4853319,32.8236108 94.0236885,32.8236108 C93.5452694,32.8236108 93.1206983,32.8729025 92.749561,32.9719 C92.3786309,33.0708975 92.0650696,33.2401047 91.8094985,33.4791071 C91.5537203,33.7183167 91.3600745,34.0401623 91.2281468,34.4440225 C91.096012,34.8482971 91.0303588,35.3635814 91.0303588,35.9902897 C91.0303588,36.6172051 91.096012,37.1324895 91.2281468,37.5365569 C91.3600745,37.9408314 91.5537203,38.2583277 91.8094985,38.4890458 C92.0650696,38.7201782 92.3867081,38.881101 92.774414,38.9714 C93.1617056,39.0623203 93.6113368,39.1074699 94.122686,39.1074699 C94.5513993,39.1074699 94.9844618,39.078889 95.4214593,39.0208988 C95.8584569,38.9633228 96.3161652,38.8438216 96.7945843,38.662188 L96.7945843,42.3977922 C96.5967963,42.4806353 96.3573797,42.5506377 96.0771627,42.6082137 C95.7965316,42.6662039 95.495811,42.7196377 95.1741725,42.7689294 C94.8525341,42.8184282 94.5226113,42.8555005 94.1846113,42.8803534 C93.8464042,42.9049993 93.5206235,42.9174257 93.2072694,42.9174257" id="Fill-11" fill="#FFFFFF"></path>
                    <path d="M77.4689994,39.5033772 C77.8647825,39.5033772 78.1944982,39.4499434 78.4585607,39.3426615 C78.7222089,39.2353797 78.9367727,39.0456689 79.1018376,38.7735292 C79.2664884,38.5013895 79.3820545,38.1387436 79.4481219,37.6849703 C79.5139822,37.2314042 79.5471195,36.6668282 79.5471195,35.9902069 C79.5471195,35.3139998 79.5139822,34.7450745 79.4481219,34.283224 C79.3820545,33.8215806 79.2664884,33.4543784 79.1018376,33.1822387 C78.9367727,32.910099 78.7222089,32.7162461 78.4585607,32.600887 C78.1944982,32.4855279 77.8647825,32.4277449 77.4689994,32.4277449 C77.0730092,32.4277449 76.7430864,32.4855279 76.4794381,32.600887 C76.2153756,32.7162461 76.0008119,32.910099 75.8361612,33.1822387 C75.6710962,33.4543784 75.55553,33.8215806 75.4896697,34.283224 C75.4238094,34.7450745 75.3908793,35.3139998 75.3908793,35.9902069 C75.3908793,36.6668282 75.4238094,37.2314042 75.4896697,37.6849703 C75.55553,38.1387436 75.6710962,38.5013895 75.8361612,38.7735292 C76.0008119,39.0456689 76.2153756,39.2353797 76.4794381,39.3426615 C76.7430864,39.4499434 77.0730092,39.5033772 77.4689994,39.5033772 M77.4689994,42.9173429 C76.396595,42.9173429 75.4403781,42.8142032 74.599106,42.6081309 C73.7580411,42.4020586 73.0443474,42.0392056 72.4590607,41.5195721 C71.8733597,41.0001456 71.4239357,40.2912154 71.1107886,39.3919532 C70.7972273,38.4933123 70.6406538,37.3593968 70.6406538,35.9902069 C70.6406538,34.6214311 70.7972273,33.4875157 71.1107886,32.5884605 C71.4239357,31.6896125 71.8733597,30.9804752 72.4590607,30.4608417 C73.0443474,29.9412081 73.7580411,29.5785623 74.599106,29.3722828 C75.4403781,29.1662105 76.396595,29.0630708 77.4689994,29.0630708 C78.5409896,29.0630708 79.4976207,29.1662105 80.3386857,29.3722828 C81.1799577,29.5785623 81.8932371,29.9412081 82.478731,30.4608417 C83.0642249,30.9804752 83.513856,31.6896125 83.8272102,32.5884605 C84.1403572,33.4875157 84.297345,34.6214311 84.297345,35.9902069 C84.297345,37.3593968 84.1403572,38.4933123 83.8272102,39.3919532 C83.513856,40.2912154 83.0642249,41.0001456 82.478731,41.5195721 C81.8932371,42.0392056 81.1799577,42.4020586 80.3386857,42.6081309 C79.4976207,42.8142032 78.5409896,42.9173429 77.4689994,42.9173429" id="Fill-13" fill="#FFFFFF"></path>
                    <polygon id="Fill-15" fill="#FFFFFF" points="112.442617 42.6700768 106.826681 42.6700768 104.154576 37.4004249 103.610296 37.4004249 103.610296 42.6700768 98.9097767 42.6700768 98.9097767 23.8675842 103.610296 23.8675842 103.610296 33.8131099 104.402277 33.8131099 106.999823 29.3103783 112.294121 29.3103783 108.236671 35.5449457"></polygon>
                    <polygon id="Fill-17" fill="#FA7400" points="126.717277 37.0294119 121.695119 37.0294119 121.695119 42.05157 118.107804 42.05157 118.107804 37.0294119 113.110292 37.0294119 113.110292 33.4420969 118.107804 33.4420969 118.107804 28.4445847 121.695119 28.4445847 121.695119 33.4420969 126.717277 33.4420969"></polygon>
                    <path d="M0.199569118,2.06925588 L12.7525826,0.462720343 C12.7525826,0.462720343 14.3808645,0.114364951 16.5867701,0.21916152 C18.7926757,0.324372304 20.5259613,0.849390686 20.5259613,0.849390686 L35.5477002,8.99059289 C35.5477002,8.99059289 36.7031549,9.56842377 37.5435985,10.4614728 C38.383835,11.3541076 38.6464478,12.457164 38.8566623,13.0873931 C39.0666696,13.7176223 39.119275,15.5035132 39.0666696,16.974186 C39.0142713,18.4446517 38.4364404,19.6527118 38.1738277,20.2305426 C37.911215,20.8081664 37.1233767,21.7012154 36.4931475,22.1214373 C35.8627113,22.5416591 34.8648657,23.11949 34.8648657,23.11949 L37.1759821,24.3799483 C37.1759821,24.3799483 38.4327125,25.1354777 39.0855164,26.2855475 C39.7385275,27.4356174 39.8269625,29.2931676 39.8269625,29.2931676 C39.8269625,29.2931676 39.9744233,31.3870279 39.6498853,32.8318123 C39.3257615,34.2768037 38.9421978,36.0165096 37.6152578,37.4318846 C36.2883179,38.8474667 34.3717419,39.8204593 33.634438,40.1153809 C32.8971341,40.4103025 31.8357064,40.7346333 31.2458632,40.9115034 C30.6562272,41.0883735 15.3225838,43.3000782 15.3225838,43.3000782 L0.199569118,35.131952 L0.199569118,2.06925588 Z" id="Stroke-19" stroke="#FFFFFF" stroke-width="3.29860662"></path>
                </g>
            </g>
        </g>
    </g>
</svg>