<?xml version="1.0" encoding="UTF-8"?>
<svg width="191px" height="27px" viewBox="0 0 191 27" version="1.1" xmlns="http://www.w3.org/2000/svg" xmlns:xlink="http://www.w3.org/1999/xlink">
    <!-- Generator: Sketch 61 (89581) - https://sketch.com -->
    <title>polka world</title>
    <desc>Created with Sketch.</desc>
    <defs>
        <polygon id="path-1" points="0.281789297 0.57057894 8.18680769 0.57057894 8.18680769 8.47553202 0.281789297 8.47553202"></polygon>
    </defs>
    <g id="定稿2" stroke="none" stroke-width="1" fill="none" fill-rule="evenodd">
        <g id="web2.1_1440" transform="translate(-244.000000, -4112.000000)">
            <g id="content6" transform="translate(227.000000, 3967.000000)">
                <g id="polka-world" transform="translate(17.250000, 145.875000)">
                    <path d="M32.1824804,15.4794154 C31.7385189,14.9798769 31.1847112,14.7301077 30.5210573,14.7301077 C29.5840958,14.7301077 28.7837881,15.0949538 28.1181727,15.8213769 C27.4545189,16.5491077 27.122365,17.4429154 27.122365,18.5034538 C27.122365,19.2311846 27.3427112,19.8346846 27.7860189,20.3113385 C28.2299804,20.7893 28.7837881,21.0292615 29.4494035,21.0292615 C30.3844035,21.0292615 31.1847112,20.6755308 31.8503266,19.9693769 C32.5146343,19.2409923 32.8480958,18.3583 32.8480958,17.3186846 C32.8480958,16.5922615 32.6264419,15.9776462 32.1824804,15.4794154 M24.3140958,12.8601077 C26.0624804,11.1967231 28.303865,10.3650308 31.0369419,10.3650308 C32.9827881,10.3650308 34.6461727,11.0110308 36.0244804,12.2991077 C37.4034419,13.6074538 38.0939035,15.1982615 38.0939035,17.0689154 C38.0939035,19.3756846 37.2197112,21.3398385 35.4706727,22.9620308 C33.6732496,24.6038385 31.4560573,25.4250692 28.8217112,25.4250692 C26.875865,25.4250692 25.2242496,24.7908385 23.8701343,23.5223769 C22.4669804,22.2336462 21.7647496,20.6448 21.7647496,18.7532231 C21.7647496,16.4242231 22.6147496,14.4600692 24.3140958,12.8601077" id="Fill-1" fill="#FFFFFF"></path>
                    <path d="M40.2367535,25.0818 C39.7437535,25.0818 39.5462919,24.8529538 39.6450227,24.3965692 L43.043715,3.9423 C43.0934073,3.48591538 43.3758689,3.25772308 43.8930612,3.25772308 L47.9939843,3.25772308 C48.5111766,3.25772308 48.7334843,3.48591538 48.6589458,3.9423 L45.2609073,24.3965692 C45.1621766,24.8529538 44.8666381,25.0818 44.3736381,25.0818 L40.2367535,25.0818 Z" id="Fill-3" fill="#FFFFFF"></path>
                    <path d="M52.1678766,3.94256154 C52.1927227,3.48552308 52.4640689,3.25733077 52.9812612,3.25733077 L57.1181458,3.25733077 C57.5862996,3.25733077 57.8079535,3.48552308 57.7837612,3.94256154 L55.7522612,16.3205231 L60.8862612,11.1146 C61.1824535,10.8236385 61.5139535,10.6771769 61.8840304,10.6771769 L66.5381073,10.6771769 C66.8584919,10.6771769 67.0801458,10.8020615 67.2037227,11.0518308 C67.3266458,11.3016 67.2645304,11.5500615 67.0193381,11.7998308 L60.7025304,17.7864462 L64.6543766,23.9907923 C64.8027996,24.2614846 64.7897227,24.5099462 64.618415,24.7381385 C64.4706458,24.9682923 64.235915,25.0820615 63.9148766,25.0820615 L60.0002996,25.0820615 C59.3843766,25.0820615 58.9534919,24.8532154 58.7069919,24.3961769 L55.4187996,18.3781769 L54.3850689,24.3961769 C54.2372996,24.8532154 53.9411073,25.0820615 53.4977996,25.0820615 L49.360915,25.0820615 C48.8188766,25.0820615 48.621415,24.8532154 48.7691843,24.3961769 L52.1678766,3.94256154 Z" id="Fill-5" fill="#FFFFFF"></path>
                    <path d="M76.7732843,15.4794154 C76.3293227,14.9798769 75.775515,14.7301077 75.1112073,14.7301077 C74.1748996,14.7301077 73.3745919,15.0949538 72.7089766,15.8213769 C72.0453227,16.5491077 71.7131689,17.4429154 71.7131689,18.5034538 C71.7131689,19.2311846 71.933515,19.8346846 72.3768227,20.3113385 C72.8207843,20.7893 73.3745919,21.0292615 74.0402073,21.0292615 C74.9752073,21.0292615 75.775515,20.6755308 76.4411304,19.9693769 C77.1047843,19.2409923 77.4388996,18.3583 77.4388996,17.3186846 C77.4388996,16.5922615 77.2165919,15.9776462 76.7732843,15.4794154 L76.7732843,15.4794154 Z M81.3907458,24.3965692 C81.2926689,24.8529538 81.0095535,25.0818 80.5413996,25.0818 L78.6942843,25.0818 C78.3248612,25.0818 78.1156304,24.9059154 78.0665919,24.5508769 L77.8083227,23.2739154 C76.5758227,24.7071462 74.9392458,25.4250692 72.8946689,25.4250692 C70.9488227,25.4250692 69.3730535,24.7810308 68.1667073,23.4909923 C66.9832458,22.2238385 66.3934766,20.6448 66.3934766,18.7532231 C66.3934766,16.4046077 67.2297458,14.4077615 68.9042458,12.7659538 C70.5545535,11.1653385 72.5494381,10.3650308 74.8895535,10.3650308 C77.1793227,10.3650308 78.8289766,11.1045308 79.8398227,12.5783 L80.6518996,11.1457231 C80.8487073,10.8338385 81.1331304,10.6775692 81.5025535,10.6775692 L83.0907458,10.6775692 C83.5837458,10.6775692 83.7923227,10.9057615 83.7184381,11.3641077 L81.3907458,24.3965692 Z" id="Fill-7" fill="#FFFFFF"></path>
                    <path d="M131.755142,15.4794154 C131.31118,14.9798769 130.758027,14.7301077 130.093719,14.7301077 C129.156757,14.7301077 128.35645,15.0949538 127.690834,15.8213769 C127.02718,16.5491077 126.695027,17.4429154 126.695027,18.5034538 C126.695027,19.2311846 126.915373,19.8346846 127.35868,20.3113385 C127.802642,20.7893 128.35645,21.0292615 129.022065,21.0292615 C129.957065,21.0292615 130.758027,20.6755308 131.422988,19.9693769 C132.087296,19.2409923 132.420757,18.3583 132.420757,17.3186846 C132.420757,16.5922615 132.199103,15.9776462 131.755142,15.4794154 M123.886757,12.8601077 C125.635142,11.1967231 127.876527,10.3650308 130.609603,10.3650308 C132.55545,10.3650308 134.218834,11.0110308 135.597796,12.2991077 C136.976103,13.6074538 137.666565,15.1982615 137.666565,17.0689154 C137.666565,19.3756846 136.792373,21.3398385 135.043334,22.9620308 C133.245257,24.6038385 131.028719,25.4250692 128.394373,25.4250692 C126.448527,25.4250692 124.796911,24.7908385 123.442796,23.5223769 C122.039642,22.2336462 121.337411,20.6448 121.337411,18.7532231 C121.337411,16.4242231 122.187411,14.4600692 123.886757,12.8601077" id="Fill-9" fill="#FFFFFF"></path>
                    <path d="M141.435138,11.3641077 C141.45933,10.9057615 141.730677,10.6775692 142.246561,10.6775692 L143.872023,10.6775692 C144.217253,10.6775692 144.438907,10.8233769 144.537638,11.1143385 L145.055484,12.7038385 C146.01533,11.1457231 147.517215,10.3650308 149.561792,10.3650308 C150.767484,10.3650308 151.66783,10.5834154 152.258253,11.0208385 C152.554446,11.2490308 152.578638,11.5399923 152.332138,11.8937231 L150.485023,14.5758 C150.263369,14.8661077 149.96783,14.9602615 149.599061,14.8549923 C149.254484,14.7726077 148.87133,14.7301077 148.453523,14.7301077 C146.999369,14.7301077 146.174215,15.3643385 145.978715,16.6328 L144.611523,24.3965692 C144.512792,24.8529538 144.205484,25.0818 143.687638,25.0818 L139.845638,25.0818 C139.302946,25.0818 139.107446,24.8529538 139.255869,24.3965692 L141.435138,11.3641077 Z" id="Fill-11" fill="#FFFFFF"></path>
                    <path d="M152.517961,25.0818 C152.024961,25.0818 151.8275,24.8529538 151.926884,24.3965692 L155.324923,3.9423 C155.373961,3.48591538 155.657077,3.25772308 156.174923,3.25772308 L160.274538,3.25772308 C160.792384,3.25772308 161.014692,3.48591538 160.940807,3.9423 L157.542115,24.3965692 C157.443384,24.8529538 157.147192,25.0818 156.654192,25.0818 L152.517961,25.0818 Z" id="Fill-13" fill="#FFFFFF"></path>
                    <path d="M171.579734,15.4794154 C171.135773,14.9798769 170.582619,14.7301077 169.917003,14.7301077 C168.980042,14.7301077 168.179734,15.0949538 167.515427,15.8213769 C166.850465,16.5491077 166.518311,17.4429154 166.518311,18.5034538 C166.518311,19.2311846 166.740619,19.8346846 167.183273,20.3113385 C167.625927,20.7893 168.179734,21.0292615 168.84535,21.0292615 C169.78035,21.0292615 170.582619,20.6755308 171.246273,19.9693769 C171.911888,19.2409923 172.244042,18.3583 172.244042,17.3186846 C172.244042,16.5922615 172.022388,15.9776462 171.579734,15.4794154 M162.71358,23.3988 C161.579811,22.1303385 161.014888,20.5604538 161.014888,18.6904538 C161.014888,16.3209154 161.87535,14.3351846 163.599542,12.7345692 C165.274042,11.1555308 167.293773,10.3650308 169.658734,10.3650308 C170.889273,10.3650308 171.985773,10.5736077 172.945619,10.9894538 L174.165042,3.9423 C174.288619,3.48591538 174.595273,3.25772308 175.088273,3.25772308 L179.15258,3.25772308 C179.619427,3.25772308 179.829965,3.48591538 179.780273,3.9423 L176.344311,24.3965692 C176.24558,24.8529538 175.963119,25.0818 175.494311,25.0818 L173.869503,25.0818 C173.549119,25.0818 173.339888,24.9373 173.241157,24.6450308 L172.761888,23.2739154 C171.210311,24.7071462 169.424003,25.4250692 167.403619,25.4250692 C165.458427,25.4250692 163.89508,24.7496462 162.71358,23.3988" id="Fill-15" fill="#FFFFFF"></path>
                    <g id="编组" transform="translate(181.769142, 16.925265)">
                        <mask id="mask-2" fill="white">
                            <use xlink:href="#path-1"></use>
                        </mask>
                        <g id="Clip-18"></g>
                        <path d="M8.13168846,3.86887308 C8.49326538,6.02133462 7.04107308,8.05937308 4.88861154,8.42029615 C2.73615,8.78187308 0.698765385,7.33033462 0.337188462,5.17721923 C-0.0250423077,3.02475769 1.42715,0.987373077 3.57961154,0.625796154 C5.73272692,0.264219231 7.77011154,1.71641154 8.13168846,3.86887308" id="Fill-17" fill="#3B95E4" mask="url(#mask-2)"></path>
                    </g>
                    <path d="M0.129307333,24.4525385 C0.0109611793,24.3237308 -0.0263080515,24.1772692 0.018153487,24.0131538 L3.30569195,11.7430769 C3.3560381,11.5554231 3.47438426,11.3978462 3.6620381,11.2683846 C3.84838426,11.1395769 4.03996118,11.0748462 4.23415349,11.0748462 L13.4409612,11.0748462 C14.4962689,11.0748462 15.490115,10.7583846 16.4244612,10.1254615 C17.3574996,9.49319231 17.9433458,8.73146154 18.1819996,7.84026923 C18.4271919,6.92619231 18.2519612,6.15269231 17.6582689,5.51976923 C17.0632689,4.88684615 16.2394227,4.57038462 15.1834612,4.57038462 L5.97730733,4.57038462 C5.78246118,4.57038462 5.62619195,4.50630769 5.50849964,4.37684615 C5.39015349,4.24869231 5.35615349,4.09046154 5.40649964,3.90215385 L6.27284579,0.668230769 C6.32319195,0.480576923 6.44219195,0.322346154 6.62919195,0.193538462 C6.81619195,0.0647307692 7.00776887,-1.46549439e-13 7.20196118,-1.46549439e-13 L16.408115,-1.46549439e-13 C18.0747689,-1.46549439e-13 19.5217304,0.351115385 20.7503073,1.05465385 C21.9782304,1.75819231 22.8471919,2.71280769 23.3565381,3.92046154 C23.8658843,5.12746154 23.9332304,6.43384615 23.5559612,7.84026923 C23.1793458,9.24669231 22.4143458,10.5471923 21.2609612,11.7430769 C20.1075766,12.9383077 18.7279612,13.8876923 17.1234227,14.5905769 C15.5182304,15.2934615 13.8829612,15.6452308 12.2163073,15.6452308 L7.80023041,15.6452308 C7.49488426,15.6452308 7.27715349,15.6805385 7.1470381,15.7511538 C7.01692272,15.8211154 6.92473041,15.9616923 6.86784579,16.1728846 L4.7670381,24.0131538 C4.71669195,24.2008077 4.59899964,24.3531538 4.41526887,24.4701923 C4.23088426,24.5878846 4.0275381,24.6460769 3.80588426,24.6460769 L0.598115025,24.6460769 C0.403922718,24.6460769 0.246999641,24.582 0.129307333,24.4525385" id="Fill-19" fill="#30D5C5"></path>
                    <path d="M94.5542381,16.2430423 C94.4711996,16.2430423 94.4234689,16.1613115 94.4123535,15.9971962 L94.9818535,0.809003846 C94.9733535,0.738388462 94.9844689,0.644888462 95.0165073,0.527196154 C95.1106612,0.176080769 95.3244689,0.000196153846 95.6572766,0.000196153846 L99.8235843,0.000196153846 C100.266892,0.000196153846 100.490507,0.153196154 100.491815,0.456580769 L100.028238,8.71923462 C100.036738,8.78985 100.019084,8.90688846 99.9759304,9.07100385 C99.8621612,9.49273462 99.6986996,9.84385 99.4842381,10.1256577 C99.021315,10.7121577 98.2746227,11.6608885 97.2421996,12.9738115 C96.2097766,14.2860808 95.4160073,15.3060808 94.8608919,16.03185 C94.7673919,16.1730808 94.6653919,16.2430423 94.5542381,16.2430423" id="Fill-21" fill="#30D5C5"></path>
                    <path d="M94.3977727,24.5227615 C94.3225561,24.4410308 94.3036189,24.3298769 94.3415419,24.1886462 C94.379465,24.0480692 94.4618496,23.8963769 94.5893496,23.7322615 C95.5766573,22.3251846 97.1838112,20.0347615 99.4095035,16.8583769 C101.634542,13.6826462 103.524811,10.9580692 105.07835,8.68399231 C105.211734,8.49699231 105.363427,8.34464615 105.533427,8.22695385 C105.703427,8.10991538 105.941427,8.05106923 106.247427,8.05106923 L110.371888,8.05106923 C110.954465,8.05106923 111.315388,8.26226154 111.452042,8.68399231 C112.152965,13.1138 112.531542,15.5866462 112.588427,16.1025308 C112.645311,16.4072231 112.702196,16.5595692 112.757773,16.5595692 C112.840811,16.5595692 112.968311,16.3954538 113.138965,16.0672231 C114.002042,14.1926462 115.220157,11.5144923 116.792003,8.03406923 C118.363196,4.55299231 119.495657,2.03895385 120.187427,0.492607692 C120.292696,0.3043 120.418234,0.176146154 120.56208,0.105530769 C120.705273,0.0349153846 120.88835,0.000261538462 121.110003,0.000261538462 L125.318157,0.000261538462 C125.484888,0.000261538462 125.587542,0.0826461538 125.627427,0.246107692 C125.666003,0.410223077 125.630042,0.597876923 125.518234,0.808415385 L114.254427,24.1886462 C114.089657,24.4939923 113.79935,24.6456846 113.382196,24.6456846 L108.88308,24.6456846 C108.660119,24.6456846 108.49535,24.6169154 108.386157,24.5580692 C108.276965,24.4998769 108.218773,24.3763 108.214196,24.1886462 C108.082773,23.2281462 107.87485,21.6458385 107.590427,19.4423769 C107.30535,17.2395692 107.104619,15.5284538 106.986927,14.3096846 C106.990196,14.1926462 106.957503,14.1338 106.888196,14.1338 C106.818888,14.1338 106.740427,14.1926462 106.653465,14.3096846 L100.132657,24.1886462 C99.9672343,24.4939923 99.6625419,24.6456846 99.2185804,24.6456846 L94.7188112,24.6456846 C94.5795419,24.6456846 94.472965,24.6051462 94.3977727,24.5227615" id="Fill-23" fill="#30D5C5"></path>
                </g>
            </g>
        </g>
    </g>
</svg>