<?xml version="1.0" encoding="UTF-8"?>
<svg width="183px" height="34px" viewBox="0 0 183 34" version="1.1" xmlns="http://www.w3.org/2000/svg" xmlns:xlink="http://www.w3.org/1999/xlink">
    <!-- Generator: Sketch 61 (89581) - https://sketch.com -->
    <title>polkabase</title>
    <desc>Created with Sketch.</desc>
    <g id="定稿2" stroke="none" stroke-width="1" fill="none" fill-rule="evenodd">
        <g id="web2.1_1440" transform="translate(-756.000000, -4109.000000)" fill="#FFFFFF" fill-rule="nonzero">
            <g id="content6" transform="translate(227.000000, 3967.000000)">
                <g id="polkabase" transform="translate(529.125000, 142.125000)">
                    <g id="编组-14">
                        <g id="编组-12">
                            <path d="M2.04187833,33.3731071 L9.85073745,33.3731071 L11.1199572,27.5986254 L27.403175,27.5986254 C29.3963988,27.5986254 31.2065905,25.792701 31.4463514,23.5649802 C31.6861122,21.3372594 30.2646496,19.5313349 28.2714258,19.5313349 L24.0474708,19.5313349 C28.8889945,17.2881684 30.6981633,12.6431091 30.6981633,8.95739766 C30.6981633,4.30721943 27.1648848,0.345887506 22.296879,0.0214516588 L34.281296,0.0214516588 C39.7316302,0.0214516588 43.1315382,3.52302823 43.1315382,7.87664963 C43.1315382,12.4285354 39.5318283,16.2316046 35.4801075,16.6822053 C38.43128,17.4818167 40.2819043,20.4328412 40.2819043,23.4346607 C40.2819043,28.2372442 36.931128,33.3904769 28.7801923,33.3904769 L2.03805234,33.3904769 L2.04187833,33.3731071 Z" id="形状结合" opacity="0.660830543"></path>
                            <g id="Fill-16">
                                <path d="M4.26359318,14.0116098 L19.3358845,14.0116098 C21.3291083,14.0116098 23.1393,12.2056854 23.3790609,9.97796459 C23.6188217,7.75024382 22.1973591,5.94431932 20.2041353,5.94431932 L6.04009034,5.94431932 L7.34908824,0 L21.6493529,0 C26.848407,0 30.6981633,4.1034255 30.6981633,8.95739766 C30.6981633,14.0096584 27.2987188,20.864542 17.3492847,20.864542 L12.6000955,20.864542 L9.85073745,33.3731071 L0,33.3731071 L4.26359318,14.0116098 Z" id="形状结合"></path>
                            </g>
                        </g>
                        <g id="编组-13" transform="translate(50.951309, 11.888639)">
                            <g id="编组-11">
                                <path d="M12.7565093,4.95246719 C12.7565093,3.65660558 11.7196502,2.67069776 10.2938627,2.67069776 L6.27465365,2.67069776 L5.05606818,8.14116991 L9.17887823,8.14116991 C11.4088472,8.14116991 12.7565093,6.71538247 12.7565093,4.95246719 L12.7565093,4.95246719 Z M0,17.2945725 L3.81115788,-7.99360578e-15 L11.2271208,-7.99360578e-15 C13.9232943,-7.99360578e-15 15.9197364,2.12636795 15.9197364,4.64166421 C15.9197364,7.25971228 14.1568211,10.8118677 8.99715189,10.8118677 L4.45908869,10.8118677 L3.03330123,17.2945725 L0,17.2945725 Z" id="Fill-1"></path>
                                <path d="M26.1116964,10.2159072 C26.1116964,8.1676646 24.893111,6.87095379 22.8448684,6.87095379 C20.3822218,6.87095379 18.6447822,9.28264906 18.6447822,11.8488967 C18.6447822,13.8971393 19.8633677,15.1938501 21.9116103,15.1938501 C24.375106,15.1938501 26.1116964,12.7566791 26.1116964,10.2159072 M15.8186829,11.9533468 C15.8186829,8.03773875 18.8010329,4.46010771 22.9484693,4.46010771 C26.7604765,4.46010771 28.9377957,6.79367764 28.9377957,10.0859814 C28.9377957,14.0015895 25.956295,17.6055453 21.8080092,17.6055453 C17.9960022,17.6055453 15.8186829,15.2456506 15.8186829,11.9533468" id="Fill-3"></path>
                                <polygon id="Fill-5" points="30.2100499 17.2943178 34.0220569 0.000594431932 36.743706 0.000594431932 32.9325481 17.2943178"></polygon>
                                <polygon id="Fill-7" points="44.9124745 17.2943178 42.1645006 12.0310476 39.9345317 13.9238886 39.1821507 17.2943178 36.4596524 17.2943178 40.2716595 0.000594431932 42.9933086 0.000594431932 40.634263 10.6307358 47.3751212 4.7704861 50.8500003 4.7704861 44.3944695 10.4490094 48.1801518 17.2943178"></polygon>
                                <path d="M53.3156191,11.8753064 C53.3156191,13.8972241 54.6114807,15.193935 56.40157,15.193935 C57.7492322,15.193935 58.9423419,14.3897535 59.6938737,13.4046948 L60.7570577,8.55667783 C60.186403,7.59709486 58.9941424,6.87103872 57.4639048,6.87103872 C55.0004091,6.87103872 53.3156191,9.28273399 53.3156191,11.8753064 M61.1977866,6.56023573 L61.5867148,4.77099561 L64.3092131,4.77099561 L61.5349143,17.293978 L58.8124161,17.293978 L59.2013445,15.6346638 C58.1381604,16.9050498 56.8414496,17.6056302 55.2602607,17.6056302 C52.4341614,17.6056302 50.4640442,15.7127892 50.4640442,12.4196362 C50.4640442,8.53035299 52.9012151,4.46019263 57.0486517,4.46019263 C58.8642166,4.46019263 60.3681293,5.26352493 61.1977866,6.56023573" id="Fill-9"></path>
                                <path d="M78.1568446,4.56353886 C78.1568446,3.47487924 77.2227373,2.67069775 76.0304767,2.67069775 L71.4159865,2.67069775 L70.4292295,7.13063563 L75.3816967,7.13063563 C77.482589,7.13063563 78.1568446,5.80844917 78.1568446,4.56353886 L78.1568446,4.56353886 Z M76.8864586,11.8750517 C76.8864586,10.682791 76.0304767,9.8004842 74.630165,9.8004842 L69.8330993,9.8004842 L68.7699152,14.6238748 L73.8005077,14.6238748 C75.7969499,14.6238748 76.8864586,13.3016883 76.8864586,11.8750517 L76.8864586,11.8750517 Z M65.1404837,17.2945725 L68.9516416,-7.99360578e-15 L76.833809,-7.99360578e-15 C79.6607575,-7.99360578e-15 81.4236728,1.81556496 81.4236728,4.07100955 C81.4236728,6.43005514 79.5563073,8.40102159 77.4562642,8.63454842 C78.9865018,9.04895239 79.9452356,10.5783408 79.9452356,12.1349033 C79.9452356,14.6238748 78.2086452,17.2945725 73.9822341,17.2945725 L65.1404837,17.2945725 Z" id="Fill-11"></path>
                                <path d="M85.2107985,11.8753064 C85.2107985,13.8972241 86.5075094,15.193935 88.2967494,15.193935 C89.6452607,15.193935 90.8375214,14.3897535 91.5899024,13.4046948 L92.6530864,8.55667783 C92.0824317,7.59709486 90.8893218,6.87103872 89.3599335,6.87103872 C86.8964376,6.87103872 85.2107985,9.28273399 85.2107985,11.8753064 M93.092966,6.56023573 L93.4818944,4.77099561 L96.2043926,4.77099561 L93.430943,17.293978 L90.7084448,17.293978 L91.097373,15.6346638 C90.0341891,16.9050498 88.7374783,17.6056302 87.1554402,17.6056302 C84.3293409,17.6056302 82.3592237,15.7127892 82.3592237,12.4196362 C82.3592237,8.53035299 84.7963946,4.46019263 88.9446803,4.46019263 C90.759396,4.46019263 92.264158,5.26352493 93.092966,6.56023573" id="Fill-13"></path>
                                <path d="M96.4923524,15.3496762 L98.0998661,13.4831599 C98.8259223,14.3900931 100.537037,15.4278015 102.378078,15.4278015 C103.803865,15.4278015 104.658998,14.6499448 104.658998,13.7421623 C104.658998,11.7720451 98.1771423,12.1609734 98.1771423,8.53069267 C98.1771423,6.37884907 99.9663824,4.45968312 103.155934,4.45968312 C105.282302,4.45968312 107.19977,5.31566509 108.262954,6.48245007 L106.785366,8.29716583 C106.214711,7.44118386 104.658998,6.61152671 103.077809,6.61152671 C101.703822,6.61152671 100.899641,7.2603067 100.899641,8.08996385 C100.899641,9.93100446 107.356021,9.59387664 107.356021,13.3277583 C107.356021,15.6350034 105.463179,17.6051207 102.144551,17.6051207 C99.8627814,17.6051207 97.8145388,16.8272641 96.4923524,15.3496762" id="Fill-15"></path>
                                <path d="M119.932077,9.98246529 C119.932077,9.90518914 119.958402,9.72346281 119.958402,9.64533746 C119.958402,8.01234802 118.843417,6.69016156 116.665249,6.69016156 C114.669656,6.69016156 113.061293,8.24587486 112.75049,9.98246529 L119.880277,9.98246529 L119.932077,9.98246529 Z M109.690864,12.0052322 C109.690864,7.90874703 112.775966,4.46019263 116.846975,4.46019263 C120.113803,4.46019263 122.395573,6.61203623 122.395573,9.98246529 C122.395573,10.6567209 122.240171,11.5381785 122.13657,11.9271069 L112.465163,11.9271069 C112.439687,12.0052322 112.439687,12.2124342 112.439687,12.34236 C112.439687,13.7936232 113.683749,15.3756613 116.224521,15.3756613 C117.391305,15.3756613 118.713492,15.0122086 119.569474,14.3124774 L120.450932,16.2307941 C119.25867,17.0604512 117.599356,17.6056302 116.017318,17.6056302 C112.15436,17.6056302 109.690864,15.4274618 109.690864,12.0052322 L109.690864,12.0052322 Z" id="Fill-17"></path>
                            </g>
                        </g>
                    </g>
                    <path d="M179.454754,29.4937594 C180.998526,29.4937594 182.25,28.2422854 182.25,26.698514 C182.25,25.1547426 180.998526,23.9032685 179.454754,23.9032685 C177.910983,23.9032685 176.659509,25.1547426 176.659509,26.698514 C176.659509,28.2422854 177.910983,29.4937594 179.454754,29.4937594 Z" id="椭圆形"></path>
                </g>
            </g>
        </g>
    </g>
</svg>