<?xml version="1.0" encoding="UTF-8"?>
<svg width="82px" height="27px" viewBox="0 0 82 27" version="1.1" xmlns="http://www.w3.org/2000/svg" xmlns:xlink="http://www.w3.org/1999/xlink">
    <!-- Generator: Sketch 61 (89581) - https://sketch.com -->
    <title>cdot</title>
    <desc>Created with Sketch.</desc>
    <g id="定稿2" stroke="none" stroke-width="1" fill="none" fill-rule="evenodd">
        <g id="web2.1_1440" transform="translate(-101.000000, -4488.000000)" fill="#E3E3E3">
            <g id="content7" transform="translate(0.000000, 4398.000000)">
                <path d="M182.75,111.85023 L182.75,116.370968 L178.229263,116.370968 L178.229263,111.85023 L182.75,111.85023 Z M111.171659,96.0276498 C113.96196,96.0276498 116.489845,97.1511833 118.327596,98.970531 L115.128864,102.165271 C114.109444,101.165146 112.712577,100.548387 111.171659,100.548387 C108.050741,100.548387 105.520737,103.078391 105.520737,106.199309 C105.520737,109.320227 108.050741,111.85023 111.171659,111.85023 C112.713085,111.85023 114.110364,111.233065 115.129871,110.232358 L118.327596,113.428086 C116.489845,115.247434 113.96196,116.370968 111.171659,116.370968 C105.554007,116.370968 101,111.816961 101,106.199309 C101,100.581657 105.554007,96.0276498 111.171659,96.0276498 Z M151.858295,96.0276498 C157.475947,96.0276498 162.029954,100.581657 162.029954,106.199309 C162.029954,111.816961 157.475947,116.370968 151.858295,116.370968 C146.240643,116.370968 141.686636,111.816961 141.686636,106.199309 C141.686636,100.581657 146.240643,96.0276498 151.858295,96.0276498 Z M139.049539,90 L139.049539,116.370968 L134.528802,116.370968 L134.528821,114.658105 C132.912543,115.740013 130.968895,116.370968 128.87788,116.370968 C123.260228,116.370968 118.706221,111.816961 118.706221,106.199309 C118.706221,100.581657 123.260228,96.0276498 128.87788,96.0276498 C130.969329,96.0276498 132.913349,96.6588662 134.529826,97.7411852 L134.528802,90 L139.049539,90 Z M171.448157,93.0138249 L171.447594,97.5338249 L174.461982,97.5345622 L174.461982,100.925115 L171.447594,100.924825 L171.448157,116.370968 L166.927419,116.370968 L166.926594,100.924825 L163.913594,100.925115 L163.913594,97.5345622 L166.926594,97.5338249 L166.927419,93.0138249 L171.448157,93.0138249 Z M151.858295,100.548387 C148.737377,100.548387 146.207373,103.078391 146.207373,106.199309 C146.207373,109.320227 148.737377,111.85023 151.858295,111.85023 C154.979213,111.85023 157.509217,109.320227 157.509217,106.199309 C157.509217,103.078391 154.979213,100.548387 151.858295,100.548387 Z M129.631336,100.548387 C126.510419,100.548387 123.980415,103.078391 123.980415,106.199309 C123.980415,109.320227 126.510419,111.85023 129.631336,111.85023 C131.842036,111.85023 133.75624,110.580779 134.684755,108.731069 L134.729994,108.638856 L134.729994,108.638856 L134.747254,108.602518 L134.747254,108.602518 L134.762,108.57 L134.763,108.567 L134.806573,108.472177 L134.806573,108.472177 L134.806663,108.471971 L134.8716,108.318146 L134.8716,108.318146 L134.932144,108.161885 C134.962583,108.079701 134.991165,107.996616 135.01784,107.912681 L134.986253,108.009044 C135.051787,107.815063 135.107077,107.616363 135.151478,107.413587 L135.155,107.393 L135.155,107.391 L135.168,107.331 L135.204877,107.136641 L135.204877,107.136641 L135.182,107.26 L135.188465,107.230097 C135.197241,107.182482 135.205421,107.134657 135.212995,107.086632 L135.217,107.053 L135.22,107.033 L135.245,106.843 L135.228,106.98 L135.236362,106.922914 L135.236362,106.922914 L135.245,106.843 L135.248303,106.82234 L135.258,106.713 L135.265,106.63 L135.261,106.685 L135.267304,106.613578 L135.267304,106.613578 L135.274,106.479 L135.275963,106.468427 L135.275963,106.468427 L135.271698,106.547629 C135.278704,106.432421 135.282258,106.31628 135.282258,106.199309 L135.275974,105.930433 C135.274755,105.904404 135.273359,105.87842 135.271789,105.852484 L135.257,105.671 L135.25,105.601 L135.245,105.555 L135.244,105.545 L135.241,105.524 L135.235742,105.470869 L135.235742,105.470869 L135.228,105.42 L135.234,105.47 L135.217,105.345 L135.212849,105.311064 L135.212849,105.311064 C135.168757,105.031787 135.104206,104.75931 135.020781,104.495218 L135.002143,104.437313 L135.002143,104.437313 L134.979043,104.368371 L134.979043,104.368371 L134.967,104.335 L134.978,104.368 L134.948,104.282 L134.928672,104.227384 C134.909871,104.176898 134.890369,104.126753 134.870177,104.076961 L134.845,104.017 L134.838,104 L134.818,103.952 L134.806117,103.925406 L134.763,103.832 L134.726,103.754 L134.71677,103.732361 L134.71677,103.732361 L134.681987,103.662042 L134.641,103.584 L134.64,103.582 L134.610398,103.52456 L134.610398,103.52456 L134.565,103.443 L134.54402,103.404765 C133.571426,101.698666 131.735712,100.548387 129.631336,100.548387 Z" id="cdot"></path>
            </g>
        </g>
    </g>
</svg>