<?xml version="1.0" encoding="UTF-8"?>
<svg width="132px" height="16px" viewBox="0 0 132 16" version="1.1" xmlns="http://www.w3.org/2000/svg" xmlns:xlink="http://www.w3.org/1999/xlink">
    <!-- Generator: Sketch 61 (89581) - https://sketch.com -->
    <title>cdot.network</title>
    <desc>Created with Sketch.</desc>
    <g id="定稿2" stroke="none" stroke-width="1" fill="none" fill-rule="evenodd">
        <g id="web2.1_1440" transform="translate(-100.000000, -17.000000)" fill="#FFFFFF">
            <g id="导航栏">
                <path d="M121.995245,17 L121.995245,32.2442294 L119.381949,32.2442294 L119.38236,31.2538093 C118.447961,31.87939 117.324251,32.2442294 116.115328,32.2442294 C112.86794,32.2442294 110.235411,29.6117009 110.235411,26.3643123 C110.235411,23.1169238 112.86794,20.4843953 116.115328,20.4843953 C117.324683,20.4843953 118.448763,20.8494952 119.383361,21.4754855 L119.381949,17 L121.995245,17 Z M152.919253,20.4843953 L152.918842,21.4748154 C153.853241,20.8492347 154.976951,20.4843953 156.185874,20.4843953 C159.433263,20.4843953 162.065791,23.1169238 162.065791,26.3643123 L162.065791,32.2442294 L159.452495,32.2442294 L159.452495,26.3643123 C159.452495,24.5602076 157.989979,23.0976918 156.185874,23.0976918 C154.44398,23.0976918 153.020523,24.4610835 152.924425,26.1789453 L152.919253,26.3643123 L152.919253,32.2442294 L150.305957,32.2442294 L150.305957,20.4843953 L152.919253,20.4843953 Z M169.470131,20.4843953 C172.71752,20.4843953 175.350048,23.1169238 175.350048,26.3643123 C175.350048,26.7361724 175.315529,27.09997 175.249519,27.4526755 L172.550745,27.453553 L172.550214,27.4523953 L166.389517,27.453553 C166.838059,28.7221083 168.047961,29.6309329 169.470131,29.6309329 C170.567702,29.6309329 171.538845,29.0896274 172.131158,28.2594169 L174.717199,29.0207313 C173.746946,30.9334229 171.761616,32.2442294 169.470131,32.2442294 C166.222743,32.2442294 163.590214,29.6117009 163.590214,26.3643123 C163.590214,23.1169238 166.222743,20.4843953 169.470131,20.4843953 Z M223.289012,17 L223.288715,25.629 L228.804109,20.4869184 L232,20.4843953 L226.573715,25.544 L232,32.2442294 L229.198336,32.2449366 L224.977715,27.032 L223.288715,28.607 L223.289012,32.2442294 L220.675715,32.2442294 L220.675715,17 L223.289012,17 Z M180.794416,18.7421976 L180.793922,21.3551976 L182.536613,21.3554941 L182.536613,23.3154665 L180.793922,23.3151976 L180.794416,32.2442294 L178.181119,32.2442294 L178.180922,23.3151976 L176.438922,23.3154665 L176.438922,21.3554941 L178.180922,21.3551976 L178.181119,18.7421976 L180.794416,18.7421976 Z M140.72387,18.7421976 L140.723376,21.3551976 L142.466068,21.3554941 L142.466068,23.3154665 L140.723376,23.3151976 L140.72387,32.2442294 L138.110573,32.2442294 L138.110376,23.3151976 L136.368376,23.3154665 L136.368376,21.3554941 L138.110376,21.3551976 L138.110573,18.7421976 L140.72387,18.7421976 Z M186.238783,20.4843953 L188.198487,27.5403953 L190.158728,20.4843953 L192.772025,20.4843953 L194.731728,27.5403953 L196.691969,20.4843953 L199.305266,20.4843953 L196.038645,32.2442294 L193.425349,32.2442294 L191.464487,25.1873953 L189.505404,32.2442294 L186.892107,32.2442294 L183.625487,20.4843953 L186.238783,20.4843953 Z M147.257111,29.6309329 L147.257111,32.2442294 L144.643815,32.2442294 L144.643815,29.6309329 L147.257111,29.6309329 Z M215.856143,20.4843953 L215.856216,21.4867755 C216.739809,20.892285 217.792847,20.5302943 218.927665,20.4884691 L219.149089,20.4843953 L219.150847,23.0973953 L218.972587,23.1029219 C217.297159,23.1966464 215.955098,24.5387072 215.861373,26.2141353 L215.855847,26.3903953 L215.856143,32.2442294 L213.242847,32.2442294 L213.242847,20.4843953 L215.856143,20.4843953 Z M105.879917,20.4843953 C107.493068,20.4843953 108.954493,21.134008 110.016867,22.1859062 L108.16829,24.0331828 C107.578923,23.4545586 106.771095,23.0976918 105.879917,23.0976918 C104.075812,23.0976918 102.613296,24.5602076 102.613296,26.3643123 C102.613296,28.1684171 104.075812,29.6309329 105.879917,29.6309329 C106.771095,29.6309329 107.578923,29.2740661 108.16829,28.6954419 L110.016867,30.5427185 C108.954493,31.5946167 107.493068,32.2442294 105.879917,32.2442294 C102.632529,32.2442294 100,29.6117009 100,26.3643123 C100,23.1169238 102.632529,20.4843953 105.879917,20.4843953 Z M129.399585,20.4843953 C132.646974,20.4843953 135.279502,23.1169238 135.279502,26.3643123 C135.279502,29.6117009 132.646974,32.2442294 129.399585,32.2442294 C126.152197,32.2442294 123.519668,29.6117009 123.519668,26.3643123 C123.519668,23.1169238 126.152197,20.4843953 129.399585,20.4843953 Z M205.838507,20.4843953 C209.085895,20.4843953 211.718424,23.1169238 211.718424,26.3643123 C211.718424,29.6117009 209.085895,32.2442294 205.838507,32.2442294 C202.591118,32.2442294 199.95859,29.6117009 199.95859,26.3643123 C199.95859,23.1169238 202.591118,20.4843953 205.838507,20.4843953 Z M129.399585,23.0976918 C127.595481,23.0976918 126.132965,24.5602076 126.132965,26.3643123 C126.132965,28.1684171 127.595481,29.6309329 129.399585,29.6309329 C131.20369,29.6309329 132.666206,28.1684171 132.666206,26.3643123 C132.666206,24.5602076 131.20369,23.0976918 129.399585,23.0976918 Z M205.838507,23.0976918 C204.034402,23.0976918 202.571886,24.5602076 202.571886,26.3643123 C202.571886,28.1684171 204.034402,29.6309329 205.838507,29.6309329 C207.642612,29.6309329 209.105127,28.1684171 209.105127,26.3643123 C209.105127,24.5602076 207.642612,23.0976918 205.838507,23.0976918 Z M116.550878,23.0976918 C114.746773,23.0976918 113.284257,24.5602076 113.284257,26.3643123 C113.284257,28.1684171 114.746773,29.6309329 116.550878,29.6309329 C117.849721,29.6309329 118.971516,28.872895 119.497985,27.7750952 L119.516229,27.7363995 L119.516229,27.7363995 L119.524,27.717 L119.537119,27.690397 L119.537119,27.690397 L119.552,27.653 L119.536,27.69 L119.596918,27.5467605 C119.636532,27.4447856 119.671173,27.3403284 119.700542,27.2336866 L119.708,27.204 L119.716168,27.1747916 L119.716168,27.1747916 L119.724334,27.1420965 L119.724334,27.1420965 L119.736,27.088 L119.74,27.071 L119.745523,27.0494855 L119.745523,27.0494855 L119.764372,26.9542204 L119.764372,26.9542204 L119.771,26.911 L119.779,26.865 L119.780438,26.857984 L119.787,26.803 L119.788,26.803 L119.793331,26.7636706 L119.793331,26.7636706 L119.787,26.803 L119.794,26.751 L119.796,26.732 L119.803831,26.6651414 L119.803831,26.6651414 L119.805666,26.6443143 L119.811388,26.5657614 L119.811388,26.5657614 L119.809,26.584 L119.81452,26.5050736 C119.816499,26.4584 119.817498,26.4114729 119.817498,26.3643123 L119.811383,26.162775 C119.809723,26.1355054 119.807729,26.1083262 119.805404,26.0812414 L119.800013,26.0242682 L119.800013,26.0242682 L119.794,25.975 L119.793645,25.967539 L119.787,25.925 L119.779,25.862 L119.771,25.816 L119.764412,25.7746255 L119.764412,25.7746255 L119.761385,25.7582594 L119.751,25.709 L119.740365,25.6554075 L119.740365,25.6554075 L119.736,25.64 L119.723,25.585 L119.707,25.522 L119.652287,25.3357903 C119.628558,25.2642011 119.602419,25.1937102 119.573968,25.1244136 L119.534593,25.0325629 L119.534593,25.0325629 L119.492517,24.942184 L119.443,24.845 L119.360577,24.6970657 C118.791093,23.7394159 117.745926,23.0976918 116.550878,23.0976918 Z M169.470131,23.0976918 C167.967729,23.0976918 166.702221,24.1119516 166.320972,25.4931048 L172.61929,25.4931048 C172.238041,24.1119516 170.972533,23.0976918 169.470131,23.0976918 Z" id="cdot.network"></path>
            </g>
        </g>
    </g>
</svg>