<?xml version="1.0" encoding="UTF-8"?>
<svg width="166px" height="54px" viewBox="0 0 166 54" version="1.1" xmlns="http://www.w3.org/2000/svg" xmlns:xlink="http://www.w3.org/1999/xlink">
    <!-- Generator: Sketch 61 (89581) - https://sketch.com -->
    <title>cdot</title>
    <desc>Created with Sketch.</desc>
    <g id="定稿2" stroke="none" stroke-width="1" fill="none" fill-rule="evenodd">
        <g id="web2.1_1440" transform="translate(-130.000000, -219.000000)" fill="#FFFFFF">
            <g id="content1">
                <path d="M296,263.368664 L296,272.548387 L286.820276,272.548387 L286.820276,263.368664 L296,263.368664 Z M150.654378,231.239631 C156.320639,231.239631 161.453982,233.521322 165.185738,237.216034 L158.690743,243.70349 C156.620645,241.672113 153.78381,240.419355 150.654378,240.419355 C144.317101,240.419355 139.179724,245.556733 139.179724,251.894009 C139.179724,258.231286 144.317101,263.368664 150.654378,263.368664 C153.78381,263.368664 156.620645,262.115905 158.690743,260.084529 L165.185738,266.571985 C161.453982,270.266696 156.320639,272.548387 150.654378,272.548387 C139.24728,272.548387 130,263.301107 130,251.894009 C130,240.486911 139.24728,231.239631 150.654378,231.239631 Z M233.271889,231.239631 C244.678987,231.239631 253.926267,240.486911 253.926267,251.894009 C253.926267,263.301107 244.678987,272.548387 233.271889,272.548387 C221.864791,272.548387 212.617512,263.301107 212.617512,251.894009 C212.617512,240.486911 221.864791,231.239631 233.271889,231.239631 Z M207.262673,219 L207.262673,272.548387 L198.082949,272.548387 L198.083988,269.069612 C194.801806,271.266922 190.854701,272.548387 186.608295,272.548387 C175.201197,272.548387 165.953917,263.301107 165.953917,251.894009 C165.953917,240.486911 175.201197,231.239631 186.608295,231.239631 C190.855132,231.239631 194.802607,232.521357 198.084987,234.719076 L198.082949,219 L207.262673,219 Z M273.050691,225.119816 L273.050152,234.298816 L279.170507,234.299539 L279.170507,241.184332 L273.050152,241.183816 L273.050691,272.548387 L263.870968,272.548387 L263.870152,241.183816 L257.751152,241.184332 L257.751152,234.299539 L263.870152,234.298816 L263.870968,225.119816 L273.050691,225.119816 Z M233.271889,240.419355 C226.934613,240.419355 221.797235,245.556733 221.797235,251.894009 C221.797235,258.231286 226.934613,263.368664 233.271889,263.368664 C239.609166,263.368664 244.746544,258.231286 244.746544,251.894009 C244.746544,245.556733 239.609166,240.419355 233.271889,240.419355 Z M188.138249,240.419355 C181.800972,240.419355 176.663594,245.556733 176.663594,251.894009 C176.663594,258.231286 181.800972,263.368664 188.138249,263.368664 C192.301986,263.368664 195.947751,261.150964 197.958785,257.832325 L198.083961,257.620671 C198.196361,257.425883 198.303202,257.227483 198.404269,257.02569 L198.447169,256.939125 L198.447169,256.939125 L198.439,256.954 L198.465,256.9 L198.607062,256.598976 L198.607062,256.598976 L198.734,256.303 L198.737,256.297 L198.779,256.195 L198.816,256.101 L198.835,256.053 L198.88498,255.924747 L198.88498,255.924747 L198.915,255.839 L198.916,255.839 L198.927479,255.809606 L198.927479,255.809606 L198.915,255.839 L198.986417,255.643233 L198.986417,255.643233 C199.062168,255.424012 199.131463,255.20178 199.194071,254.976763 L199.215,254.897 L199.237053,254.817848 L199.237053,254.817848 L199.251,254.761 L199.275311,254.668103 C199.287736,254.618058 199.299832,254.567882 199.311597,254.51758 L199.318,254.485 L199.333475,254.422201 L199.333475,254.422201 L199.359,254.302 L199.332,254.422 L199.37,254.246 L199.403829,254.085705 L199.403829,254.085705 L199.38066,254.202245 L199.413029,254.037584 L199.413029,254.037584 L199.426,253.963 L199.433,253.925 L199.437,253.906 L199.443041,253.87209 L199.443041,253.87209 L199.467509,253.725649 L199.467509,253.725649 L199.473,253.685 L199.48,253.641 L199.492258,253.563998 L199.492258,253.563998 L199.514726,253.401802 C199.535005,253.247281 199.552192,253.09198 199.56625,252.935777 L199.575192,252.831074 L199.575192,252.831074 L199.579,252.776 L199.58,252.763 L199.583206,252.725946 L199.583206,252.725946 C199.602891,252.451198 199.612903,252.173773 199.612903,251.894009 C199.612903,251.655256 199.605611,251.418205 199.591238,251.183068 L199.587,251.122 L199.579,251.015 L199.579,251.011 L199.567333,250.864349 C199.561486,250.798601 199.555084,250.733012 199.548133,250.667588 L199.529,250.508 L199.52,250.432 L199.514726,250.386217 L199.514726,250.386217 L199.492203,250.223643 L199.492203,250.223643 L199.48,250.146 L199.473,250.102 L199.443153,249.916572 L199.443153,249.916572 L199.437,249.881 L199.433,249.862 L199.426,249.824 L199.403417,249.700183 C199.389498,249.62829 199.374908,249.556637 199.359654,249.48523 L199.33619,249.377922 L199.33619,249.377922 L199.321,249.312 L199.335,249.377 L199.318,249.302 L199.319,249.302 L199.31169,249.270832 L199.281,249.147 L199.275,249.12 L199.251,249.026 L199.238389,248.975262 L199.238389,248.975262 L199.237074,248.970249 C199.137841,248.592536 199.019839,248.22243 198.884123,247.860989 L198.87,247.825 L198.856896,247.789214 L198.735613,247.485799 L198.735613,247.485799 L198.721649,247.452417 L198.721649,247.452417 L198.71,247.427 L198.616,247.212 L198.556455,247.078198 L198.556455,247.078198 L198.447455,246.849478 L198.447455,246.849478 L198.439,246.833 L198.35599,246.667047 C198.324979,246.606546 198.293445,246.546357 198.261396,246.486485 L198.092643,246.18242 C196.112311,242.738449 192.396107,240.419355 188.138249,240.419355 Z" id="cdot"></path>
            </g>
        </g>
    </g>
</svg>